<?xml version="1.0" standalone="no"?>
<!DOCTYPE svg PUBLIC "-//W3C//DTD SVG 20010904//EN"
 "http://www.w3.org/TR/2001/REC-SVG-20010904/DTD/svg10.dtd">
<svg version="1.0" xmlns="http://www.w3.org/2000/svg"
 width="1080.000000pt" height="1080.000000pt" viewBox="0 0 1080.000000 1080.000000"
 preserveAspectRatio="xMidYMid meet">

<g transform="translate(0.000000,1080.000000) scale(0.100000,-0.100000)"
fill="#000000" stroke="none">
<path d="M4655 9511 c-27 -6 -30 -10 -27 -41 1 -19 7 -54 14 -78 6 -23 9 -45
6 -47 -2 -2 -21 0 -41 6 -43 11 -106 -2 -148 -32 -14 -10 -36 -42 -49 -70 -24
-58 -22 -94 12 -165 22 -47 42 -63 105 -83 35 -12 48 -11 89 3 26 9 58 26 71
38 13 12 23 17 23 10 0 -15 30 -20 63 -9 26 9 27 11 21 61 -3 28 -12 78 -19
111 -8 33 -19 89 -25 125 -20 119 -36 175 -51 176 -8 1 -27 -1 -44 -5z m-13
-251 c80 -62 46 -180 -52 -180 -64 0 -112 62 -96 126 17 67 96 96 148 54z"/>
<path d="M5449 9507 c0 -19 -26 -230 -40 -339 -7 -54 -10 -100 -7 -103 5 -5
104 -19 235 -32 39 -4 79 -1 108 7 84 23 108 119 49 190 l-26 30 31 31 c25 24
31 39 31 73 0 63 -45 103 -131 116 -35 6 -84 14 -109 19 -88 18 -140 21 -141
8z m259 -110 c29 -27 28 -62 -3 -83 -20 -13 -37 -14 -97 -7 l-73 8 2 44 c3 71
4 71 80 64 48 -4 74 -11 91 -26z m-74 -167 c27 -6 57 -15 67 -20 27 -15 33
-47 14 -76 -16 -25 -20 -26 -105 -22 -50 1 -94 8 -101 15 -9 9 -9 23 1 62 12
49 26 63 60 55 8 -2 37 -8 64 -14z"/>
<path d="M5945 9299 c-4 -5 -4 -21 -1 -35 5 -19 13 -24 39 -24 44 0 103 -18
122 -36 8 -9 15 -27 15 -41 0 -24 -1 -25 -52 -18 -29 4 -57 11 -62 16 -23 21
-118 -5 -130 -36 -9 -26 -7 -94 4 -115 23 -44 127 -70 183 -45 13 5 16 4 11
-9 -5 -12 3 -20 30 -31 48 -20 55 -19 62 13 3 15 15 56 25 91 24 79 25 178 3
210 -27 38 -110 71 -181 71 -34 0 -65 -5 -68 -11z m103 -204 c57 -17 64 -33
32 -65 -27 -27 -83 -27 -110 2 -25 27 -25 33 0 58 24 24 15 23 78 5z"/>
<path d="M4115 9234 c-16 -9 -40 -27 -52 -42 -18 -21 -24 -24 -37 -13 -12 10
-23 10 -51 1 -39 -13 -39 -15 -11 -90 16 -41 47 -126 71 -192 9 -26 20 -50 24
-52 12 -8 81 16 81 28 0 6 -12 43 -26 81 -45 123 -44 164 6 190 78 40 113 0
171 -192 9 -31 11 -31 42 -21 59 20 60 24 22 132 -42 118 -63 157 -96 173 -33
17 -108 15 -144 -3z"/>
<path d="M5057 9162 c-22 -24 -22 -71 1 -88 61 -47 137 31 82 86 -25 25 -62
26 -83 2z"/>
<path d="M6410 9160 c-8 -5 -25 -10 -37 -10 -49 0 -123 -101 -123 -168 0 -40
39 -110 77 -139 39 -30 115 -44 177 -34 48 8 54 21 23 56 -21 25 -27 27 -54
18 -82 -29 -154 68 -106 145 25 41 43 52 85 52 31 0 45 -7 69 -32 16 -18 29
-36 29 -40 0 -13 45 -9 58 4 39 39 -35 124 -123 141 -16 3 -37 8 -45 11 -8 3
-22 1 -30 -4z"/>
<path d="M6777 9113 c-13 -21 -27 -45 -31 -53 -4 -8 -17 -31 -29 -51 -125
-207 -156 -262 -151 -270 3 -5 19 -16 37 -25 30 -16 31 -16 53 9 12 14 24 31
26 37 2 6 19 13 38 16 l35 6 13 -54 c6 -29 12 -64 12 -76 0 -35 16 -57 55 -81
20 -11 38 -21 41 -21 9 0 3 74 -12 146 -8 42 -14 83 -12 92 2 9 22 20 53 28
28 7 72 19 100 26 l49 14 -48 27 c-27 15 -53 27 -58 27 -6 0 -48 -9 -95 -21
-47 -11 -89 -19 -93 -17 -8 3 27 70 95 183 31 52 31 57 -4 78 -41 24 -48 22
-74 -20z"/>
<path d="M3695 9056 c-67 -31 -115 -101 -115 -168 1 -52 34 -114 81 -147 55
-41 124 -43 197 -6 47 23 102 75 102 95 0 13 -30 40 -45 40 -7 0 -28 -15 -47
-34 -20 -20 -49 -37 -69 -41 -38 -7 -93 9 -87 26 2 6 53 37 113 69 60 32 111
63 113 69 2 6 -19 33 -47 61 -49 49 -52 50 -108 50 -32 -1 -71 -7 -88 -14z
m122 -77 c7 -6 13 -14 13 -18 0 -11 -126 -81 -147 -81 -14 0 -17 30 -7 66 12
44 102 65 141 33z"/>
<path d="M3460 8764 c-87 -60 -85 -58 -58 -89 l24 -27 72 48 c40 27 72 51 72
54 0 3 -10 17 -23 32 l-22 27 -65 -45z"/>
<path d="M3082 8742 c-38 -32 -38 -36 -12 -69 15 -19 17 -29 9 -39 -6 -7 -9
-23 -7 -36 2 -19 9 -23 41 -23 34 0 42 -5 88 -65 46 -61 96 -100 127 -100 24
0 90 39 111 66 26 34 26 40 -1 55 -17 9 -28 8 -54 -6 -18 -10 -39 -15 -48 -12
-8 3 -38 34 -66 68 l-53 63 30 26 c25 20 29 29 22 48 -10 25 -40 29 -63 7 -21
-22 -33 -19 -64 15 l-27 30 -33 -28z"/>
<path d="M7008 8675 c-10 -13 -18 -26 -18 -29 0 -8 128 -106 139 -106 12 0 31
32 31 53 0 12 -119 108 -132 107 -2 0 -11 -11 -20 -25z"/>
<path d="M7265 8573 c-35 -9 -82 -51 -100 -89 -26 -54 -17 -141 18 -188 43
-55 92 -89 135 -90 35 -1 37 1 37 29 0 25 -6 33 -45 51 -54 26 -93 85 -79 122
4 12 12 22 16 22 4 0 48 -36 98 -80 49 -44 95 -80 101 -80 16 0 41 31 59 74
28 67 4 142 -64 195 -32 25 -51 32 -98 36 -32 2 -67 1 -78 -2z m110 -77 c18
-8 38 -23 44 -34 13 -24 15 -89 3 -96 -11 -7 -132 102 -132 119 0 8 10 16 23
18 12 2 23 5 25 6 1 0 18 -5 37 -13z"/>
<path d="M2915 8491 c-34 -20 -64 -61 -75 -100 -5 -18 -12 -25 -26 -23 -11 1
-31 -10 -47 -26 l-27 -28 53 -55 c29 -29 86 -85 125 -123 l72 -69 25 23 c14
13 25 31 25 40 0 8 -31 47 -70 85 -62 62 -70 74 -70 108 0 49 35 87 81 87 25
0 45 -13 103 -68 39 -38 78 -71 87 -75 10 -3 26 6 43 24 l27 29 -91 87 c-50
49 -99 91 -108 95 -33 13 -97 8 -127 -11z"/>
<path d="M7623 8317 c-6 -7 -63 -54 -126 -105 -123 -100 -128 -109 -81 -153
l24 -23 33 31 c115 109 179 129 232 73 40 -42 28 -69 -70 -151 -44 -37 -81
-74 -83 -82 -4 -22 42 -72 59 -64 30 14 165 135 187 167 46 68 11 164 -74 206
-31 15 -38 24 -36 42 2 15 -5 33 -19 48 -25 27 -29 28 -46 11z"/>
<path d="M2635 8155 c-46 -23 -94 -83 -110 -138 -21 -70 -6 -119 51 -174 45
-44 67 -50 147 -45 87 6 167 101 167 199 0 59 -24 102 -81 143 -34 24 -52 30
-93 30 -28 0 -64 -7 -81 -15z m113 -89 c54 -28 70 -97 35 -144 -16 -21 -30
-28 -67 -30 -42 -3 -50 0 -81 31 -45 45 -46 83 -6 126 33 35 73 41 119 17z"/>
<path d="M7805 7900 c-22 -10 -55 -34 -74 -54 -30 -31 -35 -44 -39 -96 -4 -51
-1 -66 22 -105 15 -24 40 -52 56 -60 20 -10 27 -20 23 -34 -2 -10 3 -33 12
-50 l16 -32 37 22 c20 12 61 36 90 53 30 17 61 36 70 41 9 6 61 37 115 69 59
36 97 65 97 75 0 9 -10 29 -23 44 l-22 28 -52 -35 c-57 -37 -100 -56 -89 -37
10 15 -12 91 -36 124 -23 32 -96 67 -136 66 -15 0 -45 -9 -67 -19z m145 -105
c23 -21 32 -67 19 -102 -14 -39 -54 -65 -101 -67 -94 -2 -124 132 -40 179 33
19 96 14 122 -10z"/>
<path d="M2406 7872 c-3 -5 -8 -31 -12 -59 -5 -42 -9 -50 -24 -46 -21 6 -54
-46 -44 -70 5 -14 205 -137 222 -137 5 0 15 -7 22 -15 19 -23 47 -18 69 14 27
38 26 47 -6 64 -109 55 -173 107 -173 139 0 11 7 32 15 48 15 29 15 30 -17 50
-36 22 -44 24 -52 12z"/>
<path d="M2161 7641 c-21 -38 -131 -294 -128 -297 1 -2 38 -17 82 -34 43 -18
86 -36 94 -40 16 -9 81 -38 183 -83 l58 -26 20 46 c11 25 20 46 20 47 0 2 -34
17 -75 35 -41 18 -75 37 -75 41 0 8 53 129 71 163 5 10 7 22 5 26 -7 10 -65
35 -69 30 -8 -10 -57 -128 -57 -135 0 -5 -8 -19 -18 -32 l-17 -22 -53 22 c-28
12 -52 27 -52 32 0 6 18 51 40 101 47 105 49 122 14 135 -33 13 -32 13 -43 -9z"/>
<path d="M7939 7256 c-35 -75 62 -133 101 -60 22 39 -3 78 -53 82 -31 3 -39
-1 -48 -22z"/>
<path d="M8233 6993 c-60 -18 -113 -64 -144 -125 -18 -35 -21 -55 -17 -118 4
-68 9 -83 42 -133 44 -67 69 -78 96 -45 26 31 25 37 -12 76 -31 31 -33 37 -33
107 0 64 3 77 24 99 32 34 83 49 144 43 42 -4 56 -10 82 -38 16 -19 37 -53 44
-76 12 -37 12 -46 -3 -76 -9 -19 -16 -40 -16 -45 0 -13 40 -42 57 -42 24 0 43
57 43 127 0 123 -65 216 -172 248 -61 18 -68 18 -135 -2z"/>
<path d="M2272 6938 c-7 -7 -12 -28 -12 -48 0 -43 14 -60 50 -60 36 0 50 17
50 60 0 43 -14 60 -50 60 -14 0 -31 -5 -38 -12z"/>
<path d="M1954 6645 c-4 -9 0 -36 8 -60 14 -42 14 -45 -2 -45 -18 0 -30 -27
-30 -67 0 -20 5 -23 38 -23 20 0 61 -7 90 -14 28 -8 90 -17 136 -21 l84 -7 7
42 c4 23 4 44 1 47 -5 5 -46 10 -178 22 -3 1 -20 13 -37 27 -25 20 -31 34 -31
64 0 31 -4 39 -22 44 -38 10 -58 7 -64 -9z"/>
<path d="M8265 6511 c-56 -10 -91 -36 -116 -88 -27 -56 -23 -153 9 -205 59
-94 206 -105 284 -20 24 25 30 41 45 114 13 69 -65 198 -121 198 -11 0 -30 2
-41 4 -11 2 -38 1 -60 -3z m116 -120 c38 -39 40 -88 3 -125 -22 -21 -36 -26
-77 -26 -87 0 -133 67 -91 130 27 40 45 50 92 50 35 0 49 -6 73 -29z"/>
<path d="M2014 6340 c-37 -15 -83 -70 -95 -113 -14 -49 -1 -130 27 -172 60
-92 225 -87 289 8 25 37 29 51 29 122 1 61 -3 87 -17 108 -21 32 -27 33 -58 8
-23 -19 -23 -19 -6 -55 9 -20 17 -47 17 -60 0 -29 -40 -90 -63 -94 -15 -3 -17
9 -17 127 l0 131 -42 -1 c-24 0 -52 -4 -64 -9z m46 -165 c0 -93 -7 -102 -51
-66 -33 27 -33 106 1 133 43 35 50 25 50 -67z"/>
<path d="M8226 6078 c-31 -17 -76 -68 -87 -95 -13 -35 -11 -104 4 -133 11 -20
11 -27 0 -35 -7 -5 -14 -28 -16 -50 l-2 -40 60 -6 c33 -4 138 -10 233 -14 145
-7 175 -6 183 6 26 41 -4 79 -64 79 -23 0 -52 3 -64 6 l-21 6 19 45 c24 57 24
97 -4 153 -29 58 -88 90 -166 90 -31 0 -65 -6 -75 -12z m122 -94 c64 -25 81
-90 37 -142 -32 -38 -72 -48 -118 -28 -35 14 -67 58 -67 91 0 26 32 67 65 81
38 17 37 17 83 -2z"/>
<path d="M2020 5921 c-87 -46 -115 -150 -64 -237 14 -24 21 -44 15 -44 -7 0
-11 -21 -11 -51 l0 -51 38 6 c100 17 165 26 247 36 50 6 110 14 135 18 l45 7
0 45 c0 51 4 49 -99 37 -54 -7 -58 -6 -50 10 5 10 9 45 9 79 0 51 -4 66 -28
97 -15 20 -41 44 -57 52 -41 21 -137 19 -180 -4z m136 -81 c18 -6 37 -26 50
-50 21 -38 21 -39 4 -68 -26 -42 -59 -62 -103 -62 -49 0 -97 43 -97 88 0 36
41 89 73 95 38 7 43 7 73 -3z"/>
<path d="M8190 5639 c-40 -12 -72 -39 -101 -86 -16 -25 -21 -52 -22 -113 -2
-87 10 -113 41 -94 12 8 19 30 23 79 5 60 10 72 38 97 17 15 38 28 47 28 18 0
16 -26 -11 -150 -25 -108 -24 -112 9 -123 40 -13 129 17 161 55 35 41 52 128
36 186 -14 54 -19 61 -69 95 -44 30 -103 40 -152 26z m151 -141 c16 -40 2 -95
-33 -121 -46 -34 -56 -20 -42 60 6 37 15 75 18 84 11 25 42 12 57 -23z"/>
<path d="M2114 5482 c-23 -11 -52 -35 -65 -53 -20 -29 -24 -46 -24 -111 0 -69
3 -81 30 -120 60 -86 172 -106 258 -46 92 65 87 241 -10 315 -47 36 -130 42
-189 15z m161 -107 c73 -72 -23 -191 -121 -150 -39 16 -67 64 -58 100 17 70
129 101 179 50z"/>
<path d="M2420 5111 c-8 -5 -42 -19 -75 -31 -33 -12 -76 -28 -95 -35 -19 -8
-66 -25 -105 -40 -38 -14 -79 -30 -90 -35 -11 -5 -30 -12 -43 -15 -16 -5 -21
-12 -18 -22 3 -8 9 -25 12 -38 3 -13 12 -26 20 -29 14 -5 78 16 151 49 17 8
37 15 45 15 7 0 22 6 33 13 11 7 53 24 93 37 39 13 83 33 97 45 23 19 24 23
13 58 -12 39 -14 41 -38 28z"/>
<path d="M7963 5092 c-14 -10 -33 -48 -33 -66 0 -10 22 -26 55 -41 l55 -25
-17 -38 c-26 -56 -31 -61 -81 -67 -69 -9 -101 -25 -117 -56 -21 -40 -20 -62 3
-51 9 5 45 12 79 14 l62 4 7 -30 c9 -44 51 -96 90 -112 66 -28 135 -12 189 43
33 33 120 225 112 245 -2 8 -15 19 -28 25 -48 23 -181 83 -185 83 -3 0 -34 14
-70 30 -91 43 -109 49 -121 42z m232 -201 c36 -17 65 -34 65 -39 0 -22 -34
-89 -58 -114 -29 -31 -59 -35 -101 -13 -49 25 -53 64 -16 143 13 28 29 52 35
52 6 0 40 -13 75 -29z"/>
<path d="M2455 4907 c-20 -29 -20 -30 19 -69 39 -39 55 -96 37 -135 -6 -13
-17 -23 -24 -21 -6 3 -37 53 -67 113 -30 60 -60 110 -67 112 -20 7 -100 -79
-111 -119 -18 -65 8 -138 67 -191 39 -35 45 -37 110 -37 54 0 75 5 102 23 81
55 101 143 55 241 -40 84 -94 121 -121 83z m-70 -162 c15 -31 32 -58 36 -61 5
-3 9 -14 9 -25 0 -28 -52 -25 -87 5 -21 19 -28 33 -28 64 0 36 17 72 35 72 4
0 19 -25 35 -55z"/>
<path d="M7750 4626 c-66 -43 -110 -121 -110 -193 0 -30 3 -34 20 -29 11 3 28
8 39 11 13 4 20 18 24 47 8 59 51 100 101 96 l37 -3 -65 -103 c-36 -57 -66
-110 -66 -117 0 -28 43 -45 110 -45 59 0 69 3 104 32 63 52 92 145 65 215 -13
34 -55 80 -91 99 -43 22 -127 17 -168 -10z m178 -118 c15 -15 16 -72 2 -99
-12 -21 -60 -49 -85 -49 -31 0 -26 30 15 95 24 36 46 65 49 65 4 0 12 -5 19
-12z"/>
<path d="M2640 4509 c-19 -4 -66 -15 -105 -23 -132 -28 -156 -33 -161 -38 -2
-3 5 -17 17 -31 17 -23 28 -27 67 -27 26 1 65 7 87 15 36 13 125 21 125 11 0
-2 -31 -50 -69 -106 l-69 -102 26 -39 c30 -46 34 -44 88 43 22 34 64 100 95
146 l56 84 -25 39 c-22 34 -30 39 -61 38 -20 -1 -52 -5 -71 -10z"/>
<path d="M7466 4257 c-14 -18 -26 -37 -26 -41 0 -12 153 -311 166 -325 8 -9
54 43 54 61 0 10 -25 65 -56 123 -35 66 -51 105 -42 105 7 0 56 -14 108 -30
52 -16 104 -30 116 -30 21 0 64 38 64 57 0 6 -46 25 -102 43 -57 17 -121 38
-143 45 -22 8 -56 17 -76 20 -33 6 -39 4 -63 -28z"/>
<path d="M2850 4236 c0 -28 5 -36 31 -46 60 -25 103 -108 75 -145 -15 -19 -17
-18 -68 40 -29 32 -69 77 -90 99 l-36 41 -22 -20 c-33 -30 -60 -89 -60 -132 0
-24 11 -58 30 -90 108 -188 388 -76 330 131 -15 55 -60 111 -111 136 -59 31
-79 27 -79 -14z m45 -253 c-2 -7 -21 -13 -40 -13 -68 0 -115 74 -84 132 10 19
15 17 70 -43 33 -35 57 -70 54 -76z"/>
<path d="M7282 4057 c-12 -13 -22 -30 -22 -38 0 -16 220 -239 236 -239 6 0 22
13 37 28 l27 28 -120 122 c-66 67 -124 122 -128 122 -5 0 -18 -10 -30 -23z"/>
<path d="M3075 3921 c-39 -18 -81 -58 -117 -111 -13 -18 -18 -45 -18 -101 0
-75 1 -78 45 -138 25 -34 51 -61 59 -61 8 0 19 -6 23 -13 4 -7 34 -36 67 -64
l59 -52 46 56 c25 31 73 88 106 127 87 102 135 162 135 169 0 3 -42 41 -93 86
-135 115 -220 143 -312 102z m148 -83 c37 -19 127 -90 127 -99 0 -9 -81 -112
-153 -194 l-35 -40 -62 61 c-60 58 -63 65 -67 115 -4 45 -1 60 19 89 46 68
118 97 171 68z"/>
<path d="M7104 3885 c-57 -26 -110 -83 -120 -128 -7 -33 -7 -33 28 -42 23 -6
30 -2 52 34 14 22 39 47 55 56 34 17 87 20 96 5 9 -15 -7 -32 -108 -113 l-88
-70 41 -41 c39 -40 42 -41 108 -41 56 0 74 4 109 27 120 78 108 255 -21 317
-54 27 -89 26 -152 -4z m174 -147 c21 -21 13 -46 -26 -88 -43 -44 -68 -49
-102 -22 l-22 18 63 52 c35 29 66 52 69 52 4 0 11 -5 18 -12z"/>
<path d="M7572 3768 c-20 -20 -15 -76 7 -88 43 -22 81 1 81 49 0 34 -17 51
-50 51 -14 0 -31 -5 -38 -12z"/>
<path d="M6781 3649 l-33 -20 7 -72 c3 -40 11 -76 16 -81 10 -11 13 -76 3 -76
-9 0 -146 109 -162 128 -11 14 -16 14 -50 -5 -45 -26 -50 -50 -28 -142 8 -36
20 -100 26 -141 13 -92 27 -111 65 -86 24 16 26 22 20 59 -3 23 -10 56 -15 72
-5 17 -12 54 -15 83 -7 52 -6 53 13 43 12 -6 24 -16 27 -21 3 -6 37 -37 76
-70 65 -56 71 -59 97 -48 53 23 56 30 38 91 -9 30 -16 69 -16 85 0 17 -5 43
-10 57 -18 46 0 47 53 3 29 -24 54 -45 57 -48 3 -3 22 -20 42 -39 l37 -34 36
19 c19 10 35 22 35 26 0 4 -25 28 -56 55 -31 26 -91 78 -134 116 -43 37 -82
67 -86 67 -5 0 -24 -9 -43 -21z"/>
<path d="M3692 3546 c-18 -7 -50 -29 -70 -49 -35 -36 -37 -40 -40 -117 -4 -68
-1 -83 16 -105 37 -46 70 -65 126 -73 l55 -7 -36 -70 -35 -69 29 -23 c38 -31
56 -29 74 10 8 17 57 112 108 210 87 168 91 180 74 193 -26 20 -64 29 -72 16
-4 -7 -18 3 -35 24 -29 37 -102 75 -139 73 -12 -1 -37 -7 -55 -13z m129 -96
c48 -35 48 -111 -1 -160 -29 -29 -94 -27 -125 5 -43 42 -30 131 22 159 39 21
70 20 104 -4z"/>
<path d="M6250 3386 c-77 -20 -140 -67 -140 -105 0 -6 12 -16 26 -24 24 -12
28 -11 59 20 29 29 40 33 83 33 33 0 56 -6 67 -16 15 -15 15 -18 -1 -35 -9
-11 -25 -19 -35 -19 -24 0 -177 -59 -185 -71 -9 -16 23 -75 57 -103 27 -23 40
-26 104 -26 68 0 77 3 116 33 74 57 96 127 64 205 -39 91 -121 133 -215 108z
m140 -191 c0 -43 -53 -95 -98 -95 -23 0 -74 38 -70 52 4 10 122 55 151 57 9 1
17 -6 17 -14z"/>
<path d="M4088 3374 c-20 -6 -22 -17 -8 -44 7 -12 26 -21 58 -26 82 -12 122
-43 122 -94 0 -25 4 -26 -143 27 -54 19 -104 32 -111 30 -19 -7 -28 -82 -16
-127 11 -40 72 -104 116 -120 43 -17 116 -12 151 10 18 11 46 38 63 61 25 35
30 51 30 99 0 47 -5 64 -30 98 -16 23 -47 51 -69 62 -40 20 -131 33 -163 24z
m70 -210 c42 -15 79 -28 81 -30 2 -2 -4 -13 -13 -23 -51 -56 -156 -17 -156 58
0 26 -4 26 88 -5z"/>
<path d="M5948 3288 c-29 -10 -34 -26 -19 -56 5 -9 14 -50 20 -90 15 -97 0
-129 -72 -155 -5 -1 -6 -19 -2 -40 9 -47 37 -50 83 -7 38 35 42 36 42 14 0
-13 7 -15 32 -10 55 11 61 23 42 97 -9 35 -20 68 -25 74 -5 5 -9 22 -9 39 0
16 -7 56 -16 88 -18 62 -24 65 -76 46z"/>
<path d="M4543 3238 c-19 -25 -193 -380 -193 -394 0 -7 9 -18 19 -24 46 -24
55 -15 131 133 39 78 76 146 80 150 4 5 11 -6 14 -25 4 -18 11 -51 16 -73 5
-22 14 -78 20 -124 5 -46 15 -90 21 -97 6 -8 30 -14 53 -14 l41 0 63 128 c35
70 69 135 76 145 12 16 15 15 29 -15 8 -18 17 -73 20 -123 3 -49 12 -108 20
-130 13 -36 18 -40 57 -47 24 -4 46 -6 48 -3 3 2 -2 35 -11 72 -8 38 -19 95
-22 128 -4 33 -13 87 -21 120 -7 33 -14 74 -14 91 0 44 -19 61 -72 67 l-47 4
-71 -138 c-39 -77 -74 -139 -79 -139 -20 0 -31 30 -31 90 -1 36 -5 83 -10 105
-25 110 -25 110 -55 116 -49 11 -72 10 -82 -3z"/>
<path d="M5506 3194 c-9 -8 -16 -28 -16 -44 0 -23 7 -33 31 -45 28 -15 33 -15
55 0 27 17 34 71 12 93 -17 17 -64 15 -82 -4z"/>
</g>
</svg>
